<svg xmlns="http://www.w3.org/2000/svg" viewBox="0 0 22.28 21.94"><defs><style>.a{fill:#535453;}</style></defs><title>gemma-</title><path class="a" d="M22.19,20.31a1.94,1.94,0,0,1-.58,1.1,1.78,1.78,0,0,1-2.52-.09l0,0c-1.58-1.58-3.17-3.16-4.74-4.75a1.09,1.09,0,0,1-.13-.17c-.59.31-1.11.63-1.66.86a8.75,8.75,0,0,1-7.24-.1,8.86,8.86,0,0,1-4.1-3.81,8.69,8.69,0,0,1-1.07-5,8.66,8.66,0,0,1,2.56-5.6A8.64,8.64,0,0,1,8,.14a8.71,8.71,0,0,1,5.25,1,8.9,8.9,0,0,1,3.32,3.07,8.81,8.81,0,0,1,1.4,4.45,8.71,8.71,0,0,1-1.23,4.86.29.29,0,0,0,0,.4l0,0c1.54,1.52,3.06,3.06,4.6,4.59a2.58,2.58,0,0,1,.83,1.35ZM15.05,9a6,6,0,1,0-6.05,6,6,6,0,0,0,6.05-6Z"/></svg>