<svg xmlns="http://www.w3.org/2000/svg" viewBox="0 0 27.17 27.58"><defs><style>.a{fill:#fff;}</style></defs><title>gemma-</title><path class="a" d="M21,27.26H6.16A.31.31,0,0,0,6,27.21a6.25,6.25,0,0,1-2.27-.7A6.75,6.75,0,0,1,.22,21.78c0-.19-.08-.39-.12-.58V6.34a1.09,1.09,0,0,0,0-.17A11.67,11.67,0,0,1,.42,5,6.75,6.75,0,0,1,6.92.28H20.25A6.38,6.38,0,0,1,23,.84a6.64,6.64,0,0,1,4.06,6.32c0,4.4,0,8.8,0,13.2a6.79,6.79,0,0,1-5.48,6.78ZM13.6,2.54H7a5.83,5.83,0,0,0-.84.06A4.42,4.42,0,0,0,2.37,6.88c0,4.58,0,9.16,0,13.74a5.44,5.44,0,0,0,.05.58A4.48,4.48,0,0,0,6.61,25c4.61,0,9.22,0,13.83,0a3.66,3.66,0,0,0,.57,0,4.46,4.46,0,0,0,3.8-4.24c0-4.6,0-9.2,0-13.8a5.11,5.11,0,0,0,0-.55,4.45,4.45,0,0,0-4.23-3.8C18.22,2.53,15.91,2.54,13.6,2.54Z"/><path class="a" d="M13.59,7a6.74,6.74,0,1,1-6.75,6.73A6.74,6.74,0,0,1,13.59,7Zm0,2.25a4.49,4.49,0,1,0,4.49,4.48A4.49,4.49,0,0,0,13.58,9.28Z"/><path class="a" d="M20.9,8.15a1.69,1.69,0,1,1,0-3.38,1.69,1.69,0,1,1,0,3.38Z"/></svg>