<?xml version="1.0" encoding="utf-8"?>
<!-- Generator: Adobe Illustrator 23.0.1, SVG Export Plug-In . SVG Version: 6.00 Build 0)  -->
<svg version="1.1" id="Layer_1" xmlns="http://www.w3.org/2000/svg" xmlns:xlink="http://www.w3.org/1999/xlink" x="0px" y="0px"
	 viewBox="0 0 9.7 14" style="enable-background:new 0 0 9.7 14;" xml:space="preserve">
<style type="text/css">
	.st0{fill:#545454;}
</style>
<title>gemma-</title>
<g>
	<path class="st0" d="M5.2,0.4c0.3,0.1,0.6,0.1,1,0.2c0.8,0.2,1.5,0.6,2.1,1.2c0.6,0.7,1.1,1.4,1.3,2.3c0.2,0.7,0.1,1.4,0,2.1
		C9.3,7,8.9,7.8,8.6,8.5c-0.8,1.6-1.9,3-3,4.4c-0.1,0.1-0.2,0.3-0.4,0.4c-0.2,0.2-0.5,0.2-0.7,0c-1.3-1.5-2.5-3.1-3.4-4.8
		C0.8,7.7,0.4,6.9,0.2,6.1C0,4.9,0.2,3.8,0.8,2.7c0.6-1.1,1.5-1.8,2.7-2.1c0.3-0.1,0.6-0.1,0.9-0.2c0,0,0.1,0,0.1,0
		C4.8,0.4,5,0.4,5.2,0.4z M4.9,7.5c1.3,0,2.4-1.1,2.4-2.4c0-1.3-1-2.4-2.4-2.3c-1.3,0-2.4,1.1-2.4,2.4C2.5,6.4,3.6,7.5,4.9,7.5z"/>
</g>
</svg>
