<svg xmlns="http://www.w3.org/2000/svg" viewBox="0 0 26.63 26.71"><defs><style>.a{fill:#fff;}</style></defs><title>gemma-</title><path class="a" d="M11.8,26.58H3.55l-.12,0A3.77,3.77,0,0,1,.5,24.32a10.79,10.79,0,0,1-.36-1.14V3.58a.54.54,0,0,0,0-.11A3.85,3.85,0,0,1,4,.18H22.69A3.85,3.85,0,0,1,26.54,4q0,9.34,0,18.69a3.71,3.71,0,0,1-2.21,3.48,7.86,7.86,0,0,1-1.19.38h-6.7V17.25h3.91l.78-4.65H16.45V9.46h4.66V4.83c-1.64,0-3.27-.07-4.89,0A4.59,4.59,0,0,0,11.8,9.58c0,.91,0,1.82,0,2.73v.31H8.72v4.63H11.8Z"/></svg>