<svg xmlns="http://www.w3.org/2000/svg" viewBox="0 0 22 22.03"><defs><style>.a{fill:#fff;}.b{fill:#535453;}</style></defs><title>gemma-</title><path class="a" d="M15.5,22a2.75,2.75,0,0,0,2-.67c.67-.64,1.32-1.31,2-2A1.36,1.36,0,0,0,19.77,18a1.81,1.81,0,0,0-.57-.93c-.8-.8-1.6-1.61-2.41-2.41a2.14,2.14,0,0,0-.32-.28,1.47,1.47,0,0,0-1.14-.34,1.84,1.84,0,0,0-1,.58l-1.5,1.51a.35.35,0,0,1-.47.11c-.4-.21-.81-.41-1.19-.65a14.86,14.86,0,0,1-3-2.53,12.43,12.43,0,0,1-2.3-3.23c-.15-.34-.15-.4.11-.66L7.39,7.77a1.83,1.83,0,0,0,.59-1A1.62,1.62,0,0,0,7.39,5.3c-.82-.83-1.63-1.65-2.47-2.47a2.22,2.22,0,0,0-.67-.46,1.48,1.48,0,0,0-1.7.43C2,3.36,1.41,3.93.85,4.5A2.18,2.18,0,0,0,.24,5.56a4.79,4.79,0,0,0,0,2.35,15,15,0,0,0,2,4.58,21.85,21.85,0,0,0,10,8.7A8.85,8.85,0,0,0,15.5,22ZM10.9,6.17A5.92,5.92,0,0,1,15.84,11l1.64-.28a7.44,7.44,0,0,0-6.35-6.13Z"/><path class="b" d="M11.47.16c.49.11,1,.21,1.46.34A12.1,12.1,0,0,1,18.68,4a12.32,12.32,0,0,1,3,5.41c.09.3.15.61.23.92v.09l-1.64.29A10.94,10.94,0,0,0,11.13,1.8L11.34.16Z"/><path class="b" d="M15.5,22a8.77,8.77,0,0,1-3.31-.78,21.76,21.76,0,0,1-10-8.7,15.08,15.08,0,0,1-2-4.57,4.83,4.83,0,0,1,0-2.36,2.2,2.2,0,0,1,.61-1C1.4,3.93,2,3.36,2.54,2.8a1.47,1.47,0,0,1,1.7-.43,2.4,2.4,0,0,1,.68.46c.83.81,1.65,1.64,2.47,2.47A1.64,1.64,0,0,1,8,6.74a1.83,1.83,0,0,1-.59,1L5.93,9.21c-.25.26-.26.32-.1.66a12,12,0,0,0,2.29,3.22,14.59,14.59,0,0,0,3,2.54c.38.24.8.43,1.19.65a.36.36,0,0,0,.47-.11l1.5-1.51a1.78,1.78,0,0,1,1-.58,1.5,1.5,0,0,1,1.15.33c.11.09.21.19.31.29l2.41,2.4a1.85,1.85,0,0,1,.57.93,1.35,1.35,0,0,1-.33,1.27c-.63.68-1.28,1.35-1.95,2A2.72,2.72,0,0,1,15.5,22Z"/><path class="b" d="M10.9,6.17l.22-1.62a7.42,7.42,0,0,1,6.35,6.13L15.83,11A5.91,5.91,0,0,0,10.9,6.17Z"/></svg>