<svg xmlns="http://www.w3.org/2000/svg" viewBox="0 0 28.84 19.84"><defs><style>.a{fill:#535453;}</style></defs><title>gemma-</title><path class="a" d="M.1,3.72l9.64,6.34-.21.15L.32,16l-.22.1Z"/><path class="a" d="M28.74,16.14l-.23-.1-9.2-5.82-.22-.15,9.65-6.35Z"/><path class="a" d="M14.42.09H26.8a1.78,1.78,0,0,1,1.8,1.2.34.34,0,0,1-.13.47l0,0L19.13,7.91l-4.5,3a.33.33,0,0,1-.42,0L.35,1.75a.29.29,0,0,1-.14-.38h0A1.78,1.78,0,0,1,1.76.1H14.42Z"/><path class="a" d="M.15,18.27l.25-.16,10.74-6.8a.36.36,0,0,1,.49,0c.72.49,1.45.95,2.17,1.44a1,1,0,0,0,1.24,0c.73-.5,1.48-1,2.21-1.47a.3.3,0,0,1,.37,0q5.46,3.47,10.91,6.9l.13.1A1.74,1.74,0,0,1,27,19.77H2.06A1.77,1.77,0,0,1,.27,18.64C.23,18.53.2,18.42.15,18.27Z"/></svg>