<svg xmlns="http://www.w3.org/2000/svg" viewBox="0 0 26.29 26.23"><defs><style>.a{fill:#fff;}</style></defs><title>gemma-</title><path class="a" d="M.18,23.08V3.18s0-.06,0-.09A3.53,3.53,0,0,1,3.8.13H22.64a3.53,3.53,0,0,1,3.54,3.53V22.6a3.54,3.54,0,0,1-2.4,3.34l-.7.19H3.27l-.14-.05A3.52,3.52,0,0,1,.3,23.54C.25,23.39.22,23.23.18,23.08ZM14.07,11.66s0-.05,0-.07c0-.22,0-.44,0-.66,0-.38-.18-.55-.56-.55H11.19c-.42,0-.6.18-.6.6v9.65c0,.44.19.62.64.62.69,0,1.38,0,2.08,0,.54,0,.69-.15.69-.68,0-1.64,0-3.29,0-4.93a3.05,3.05,0,0,1,.49-1.73,1.65,1.65,0,0,1,1.63-.75,1.46,1.46,0,0,1,1.4,1.13,7.15,7.15,0,0,1,.2,1.6c0,1.58,0,3.16,0,4.74,0,.44.17.62.62.62h2.26c.44,0,.63-.19.63-.64,0-1.76,0-3.52,0-5.28A14,14,0,0,0,21,13.1a3.43,3.43,0,0,0-1.35-2.22,3.85,3.85,0,0,0-2.3-.67A3.55,3.55,0,0,0,14.07,11.66ZM9,15.82V11.1c0-.57-.15-.73-.74-.73h-2c-.45,0-.65.2-.65.65v9.57c0,.45.21.66.67.66.68,0,1.35,0,2,0s.72-.17.72-.71Zm.5-8.6A2.21,2.21,0,1,0,7.3,9.43,2.2,2.2,0,0,0,9.53,7.22Z"/></svg>