<svg xmlns="http://www.w3.org/2000/svg" viewBox="0 0 29 29"><defs><style>.a{fill:#535453;}</style></defs><title>Untitled-1</title><path class="a" d="M22.1,28H7.24S7.17,28,7.13,28a6.19,6.19,0,0,1-2.27-.7A6.73,6.73,0,0,1,1.3,22.53L1.18,22V7.09l.06-.17c.09-.39.14-.79.26-1.17A6.75,6.75,0,0,1,8,1h3.64c3.23,0,6.46,0,9.69,0a6.35,6.35,0,0,1,2.76.56,6.62,6.62,0,0,1,4.06,6.32c0,4.4,0,8.8,0,13.2a6.79,6.79,0,0,1-5.48,6.78ZM14.68,3.29H8.1a5.93,5.93,0,0,0-.84.06A4.43,4.43,0,0,0,3.45,7.63c0,4.58,0,9.16,0,13.74a3.68,3.68,0,0,0,0,.58,4.46,4.46,0,0,0,4.19,3.79c4.61,0,9.22,0,13.83,0a3.66,3.66,0,0,0,.57,0,4.45,4.45,0,0,0,3.8-4.24c0-4.6,0-9.2,0-13.8a5.09,5.09,0,0,0,0-.55,4.47,4.47,0,0,0-4.24-3.8C19.3,3.28,17,3.29,14.68,3.29Z"/><path class="a" d="M14.67,7.78a6.74,6.74,0,1,1-6.74,6.73A6.73,6.73,0,0,1,14.67,7.78Zm0,2.25a4.49,4.49,0,1,0,4.49,4.48A4.49,4.49,0,0,0,14.67,10Z"/><path class="a" d="M22,8.9a1.69,1.69,0,0,1,0-3.38A1.69,1.69,0,1,1,22,8.9Z"/></svg>