<svg xmlns="http://www.w3.org/2000/svg" viewBox="0 0 13.58 13.58"><title>gemma-</title><path d="M10.15,13.5a6.55,6.55,0,0,1-1.77-.42,12.57,12.57,0,0,1-3.82-2.33A15,15,0,0,1,1.14,6.63,8.7,8.7,0,0,1,.13,4c0-.14,0-.29-.07-.44a.73.73,0,0,1,.11-.48A11.14,11.14,0,0,1,1.82.9a7,7,0,0,1,.7-.63A.83.83,0,0,1,3.85.49c.39.56.76,1.14,1.12,1.73a7.14,7.14,0,0,1,.53,1,.92.92,0,0,1-.28,1.3l-.66.57a.13.13,0,0,0,0,.18A6.13,6.13,0,0,0,8.24,9a.16.16,0,0,0,.2,0c.15-.19.3-.37.47-.55a4.68,4.68,0,0,1,.39-.38A.73.73,0,0,1,10,7.92a5.32,5.32,0,0,1,1.38.66c.58.35,1.14.73,1.7,1.1a1,1,0,0,1,.25.22c.3.4.33.69.06,1a9.65,9.65,0,0,1-1,1.05,9.37,9.37,0,0,1-1.9,1.41A1.84,1.84,0,0,1,10.15,13.5ZM3.08,1,3,1A13.09,13.09,0,0,0,1.08,3.25.58.58,0,0,0,1,3.71,7.31,7.31,0,0,0,1.72,5.8a14.3,14.3,0,0,0,5.67,5.84,8.15,8.15,0,0,0,2.45.92.54.54,0,0,0,.44-.09A13.1,13.1,0,0,0,12,11.07l.57-.59-.15-.12a15.41,15.41,0,0,0-2.54-1.5c-.1-.06-.16,0-.23.05-.25.3-.52.58-.77.88a.59.59,0,0,1-.7.18,6.91,6.91,0,0,1-2.63-1.5,6.62,6.62,0,0,1-2-3.06c-.16-.52-.2-.42.21-.83.26-.26.54-.49.81-.72a.16.16,0,0,0,0-.24,17.42,17.42,0,0,0-1.3-2.26Z"/></svg>