<svg xmlns="http://www.w3.org/2000/svg" viewBox="0 0 9.73 13.98"><title>gemma-</title><path d="M5.29.08c.25.05.5.08.75.14A4.86,4.86,0,0,1,9.65,4.06a5.65,5.65,0,0,1-.33,3,14.09,14.09,0,0,1-1.58,3C7,11.11,6.28,12.16,5.55,13.21c-.11.16-.22.33-.34.49a.39.39,0,0,1-.65,0c-1-1.44-2.06-2.82-3-4.32a12.13,12.13,0,0,1-1.35-3A4.87,4.87,0,0,1,.72,2.46,4.76,4.76,0,0,1,4.2.13l.28,0ZM4.88,12.73l.06-.06c.68-1,1.36-1.94,2-2.92a13.89,13.89,0,0,0,1.59-3,4.89,4.89,0,0,0,.29-2.57A4,4,0,1,0,.94,5.8a9.13,9.13,0,0,0,.89,2.33,29.79,29.79,0,0,0,2,3.16Z"/><path d="M2.47,4.93A2.42,2.42,0,1,1,4.88,7.35,2.42,2.42,0,0,1,2.47,4.93ZM4.88,6.54A1.62,1.62,0,1,0,3.27,4.92,1.62,1.62,0,0,0,4.88,6.54Z"/></svg>