<svg xmlns="http://www.w3.org/2000/svg" viewBox="0 0 28.5 28.73"><defs><style>.a{fill:#535453;}</style></defs><title>Untitled-1</title><path class="a" d="M.53,24.32V3.67a.22.22,0,0,0,0-.08A3.68,3.68,0,0,1,4.29.51H23.83A3.66,3.66,0,0,1,27.5,4.17V23.82A3.65,3.65,0,0,1,25,27.28c-.24.08-.49.14-.73.2H3.74l-.14-.05A3.65,3.65,0,0,1,.66,24.79C.61,24.64.57,24.48.53,24.32ZM14.94,12.47s0-.05,0-.07c0-.22,0-.45,0-.68a.51.51,0,0,0-.58-.58H12c-.43,0-.62.19-.62.63v10c0,.46.2.66.66.66h2.16c.56,0,.72-.16.72-.72,0-1.7,0-3.4,0-5.1a3.18,3.18,0,0,1,.5-1.8,1.73,1.73,0,0,1,1.7-.78,1.5,1.5,0,0,1,1.45,1.17,7.19,7.19,0,0,1,.21,1.66c0,1.64,0,3.28,0,4.92,0,.46.18.64.64.64h2.34c.46,0,.66-.19.66-.66,0-1.82,0-3.65,0-5.47A15,15,0,0,0,22.12,14a3.57,3.57,0,0,0-1.4-2.31A4,4,0,0,0,18.34,11,3.69,3.69,0,0,0,14.94,12.47ZM9.71,16.79V11.9c0-.6-.16-.76-.76-.76H6.84c-.47,0-.67.21-.67.67v9.93a.6.6,0,0,0,.69.69H9c.56,0,.74-.19.74-.74C9.72,20.06,9.71,18.43,9.71,16.79Zm.52-8.92a2.29,2.29,0,1,0-2.31,2.29A2.3,2.3,0,0,0,10.23,7.87Z"/></svg>